# xmcd
#
# Track frame offsets: 
#        150
#        12436
#        28238
#        53478
#        64122
#        82542
#        98234
#        111650
#        124909
#        143386
#
# Disc length: 2206 seconds
#
# Revision: 0
# Processed by: cddbd v1.5.2PL0 Copyright (c) Steve Scherf et al.
# Submitted via: ExactAudioCopy v1.0b4
#
DISCID=7c089c0a
DTITLE=Howlin' Wolf  - All Night Boogie (LP)
DYEAR=1984
DGENRE=Blues
TTITLE0=Cause Of It All
TTITLE1=The Killing Floor
TTITLE2=Little Red Rooster
TTITLE3=Built For Comfort
TTITLE4=Commit A Crime
TTITLE5=Do The Do
TTITLE6=Highway 49
TTITLE7=Worried About My Baby
TTITLE8=Poor Boy
TTITLE9=Wang Dang Doodle
EXTD=
EXTT0=
EXTT1=
EXTT2=
EXTT3=
EXTT4=
EXTT5=
EXTT6=
EXTT7=
EXTT8=
EXTT9=
PLAYORDER=
